<?xml version="1.0" encoding="UTF-8"?>
<svg id="Capa_1" xmlns="http://www.w3.org/2000/svg" version="1.1" viewBox="0 0 366 70">
  <!-- Generator: Adobe Illustrator 29.0.1, SVG Export Plug-In . SVG Version: 2.1.0 Build 192)  -->
  <defs>
    <style>
      .st0 {
        fill: #fff;
      }
    </style>
  </defs>
  <g>
    <path class="st0" d="M161.4,23h-24.3v25.5h24.3v-8.8l5.8,1.2v4.1c0,3.3-.6,5.5-1.7,6.6-1.1,1.1-3.3,1.7-6.5,1.7h-19.6c-3.2,0-5.3-.6-6.5-1.7-1.2-1.2-1.7-3.3-1.7-6.6v-18.5c0-3.2.6-5.4,1.7-6.6,1.2-1.2,3.3-1.7,6.5-1.7h19.6c3.2,0,5.3.6,6.5,1.7,1.1,1.1,1.7,3.3,1.7,6.5v3.3l-5.8,1.1v-7.9Z"/>
    <path class="st0" d="M171.5,53.4l16.6-28.8h5l17.1,28.8h-5.9l-3.7-6.7h-19.9l-3.7,6.7s-5.4,0-5.4,0ZM182.9,42.5h15.3l-7.7-13.7-7.6,13.7Z"/>
    <path class="st0" d="M214.7,53.4v-28.8h24.3c4.2,0,6.3,1.9,6.3,5.6v6.5c0,3.7-2.1,5.5-6.3,5.5h-18.8v11.3h-5.4ZM236.6,28.9h-16.4v9h16.4c2.2,0,3.3-.9,3.3-2.7v-3.6c0-1.8-1.1-2.7-3.3-2.7Z"/>
    <path class="st0" d="M257.1,53.4h-5.4v-28.7h5.4v28.7Z"/>
    <path class="st0" d="M280,28.9v24.5h-5.4v-24.5h-13.6v-4.3h32.7v4.3h-13.7Z"/>
    <path class="st0" d="M293.1,53.4l16.6-28.8h5l17.1,28.8h-5.9l-3.7-6.7h-19.9l-3.7,6.7s-5.4,0-5.4,0ZM304.5,42.5h15.3l-7.7-13.7-7.6,13.7Z"/>
    <path class="st0" d="M336.3,53.4v-28.8h5.4v24.5h22.4v4.3h-27.9Z"/>
  </g>
  <path class="st0" d="M121.8,68.1H2.3V2.7h119.5v65.3ZM3.8,66.5h116.4V4.3H3.8v62.2Z"/>
  <path class="st0" d="M36.6,44.4h-15.9l-4.1,9.5h-8.2L25.1,16.8h7l16.7,37.1h-8.1l-4.1-9.5ZM28.6,25.7c-1.5,3.9-2.8,7.1-3.9,9.7l-1.4,3.3h10.9l-1.4-3.3c-1.1-2.6-2.5-5.9-3.9-9.7h-.1Z"/>
  <path class="st0" d="M72.8,21.8c-2.1,0-4,.3-5.8.9-1.8.6-3.3,1.5-4.6,2.7-1.3,1.2-2.3,2.6-3,4.3-.7,1.7-1.1,3.7-1.1,5.9s.3,4.1,1,5.8c.6,1.7,1.6,3,2.8,4.1,1.2,1.1,2.7,1.9,4.5,2.5,1.8.6,3.7.8,6,.8s3.2-.1,4.9-.3c1.7-.2,3.2-.5,4.7-1v5.9c-1.5.4-3.1.7-4.8.9-1.7.2-3.5.3-5.3.3-3.6,0-6.7-.4-9.4-1.3-2.7-.9-5-2.2-6.8-3.8-1.8-1.6-3.2-3.6-4.1-5.9-.9-2.3-1.4-4.8-1.4-7.6s.5-5.5,1.5-7.9c1-2.4,2.4-4.5,4.2-6.3,1.8-1.8,4.1-3.2,6.9-4.2,2.8-1,5.9-1.5,9.4-1.6,1.8,0,3.5.1,5.1.3,1.6.2,3,.5,4.3.9v5.8c-1.7-.5-3.2-.8-4.7-1-1.4-.2-2.9-.3-4.2-.3Z"/>
  <path class="st0" d="M95.7,53.9h-7.7V16.8h26.8v5.7h-19.1v9.6h16.3v5.7h-16.3v16.2Z"/>
</svg>